<?xml version="1.0" encoding="utf-8"?>
<!-- Generator: Adobe Illustrator 26.0.3, SVG Export Plug-In . SVG Version: 6.00 Build 0)  -->
<svg version="1.1" id="Layer_1" xmlns="http://www.w3.org/2000/svg" xmlns:xlink="http://www.w3.org/1999/xlink" x="0px" y="0px"
	 viewBox="0 0 750 610" style="enable-background:new 0 0 750 610;" xml:space="preserve">
<style type="text/css">
	.st0{fill:#3A405A;}
	.st1{fill:none;}
	.st2{fill:#E1FF5F;}
	.st3{font-family:'Arial-BoldMT';}
	.st4{font-size:15.5338px;}
	.st5{fill:#FFE156;}
	.st6{fill:#4ECDC4;}
	.st7{fill:#FF6B6B;}
	.st8{enable-background:new    ;}
	.st9{fill:#AE8CA3;}
	.st10{font-size:13.9805px;}
	.st11{font-size:16.5694px;}
	.st12{font-family:'ArialMT';}
	.st13{font-size:18.6406px;}
	.st14{font-size:10.3559px;}
</style>
<g id="path0">
	<path class="st0" d="M-0.5,50.6c0-6.6,5.4-12,12-12h442.4c6.6,0,12,5.4,12,12v316.7c0,6.6-5.4,12-12,12H11.5c-6.6,0-12-5.4-12-12
		V50.6z"/>
</g>
<rect x="-0.5" y="38.6" class="st1" width="466.4" height="340.7"/>
<text transform="matrix(1.0512 0 0 1 19.6728 72.0204)" class="st2 st3 st4">Department of Youth and Community Development</text>
<g id="path1">
	<path class="st5" d="M-0.5,393.2c0-6.6,5.4-12,12-12h442.4c6.6,0,12,5.4,12,12v186.1c0,6.6-5.4,12-12,12H11.5c-6.6,0-12-5.4-12-12
		V393.2z"/>
</g>
<rect x="-0.5" y="381.2" class="st1" width="466.4" height="210.1"/>
<g id="path2">
	<path class="st6" d="M467.8,50.6c0-6.6,5.4-12,12-12h257.2c6.6,0,12,5.4,12,12v218.8c0,6.6-5.4,12-12,12H479.8c-6.6,0-12-5.4-12-12
		V50.6z"/>
</g>
<rect x="467.8" y="38.6" class="st1" width="281.2" height="242.8"/>
<g id="path3">
	<path class="st7" d="M467.8,295.3c0-6.6,5.4-12,12-12h128.6c6.6,0,12,5.4,12,12v284c0,6.6-5.4,12-12,12H479.8c-6.6,0-12-5.4-12-12
		V295.3z"/>
</g>
<rect x="467.8" y="283.3" class="st1" width="152.6" height="308"/>
<text transform="matrix(1 0 0 1 488.4902 317.4589)" class="st8"><tspan x="0" y="0" class="st3 st4">Parks </tspan><tspan x="0" y="18.6" class="st3 st4">&amp; Recreation</tspan></text>
<g id="path4">
	<path class="st9" d="M622.3,295.3c0-6.6,5.4-12,12-12h102.7c6.6,0,12,5.4,12,12v284c0,6.6-5.4,12-12,12H634.3c-6.6,0-12-5.4-12-12
		V295.3z"/>
</g>
<rect x="622.3" y="283.3" class="st1" width="126.7" height="308"/>
<text transform="matrix(1 0 0 1 626.414 319.6796)" class="st3 st10">Legal Aid Society</text>
<text transform="matrix(1 0 0 1 20.8066 103.0887)" class="st2 st3 st11">$34.5 million</text>
<text transform="matrix(1.0038 0 0 1 20.2153 415.2958)" class="st3 st4">City University of New York</text>
<text transform="matrix(1.0038 0 0 1 20.8066 446.3641)" class="st3 st4">$21.4 million</text>
<text transform="matrix(1.0512 0 0 1 488.4902 72.2313)" class="st3 st4">Department of Education</text>
<text transform="matrix(1.0038 0 0 1 489.624 103.2992)" class="st3 st4">$14.9 million</text>
<text transform="matrix(1.0038 0 0 1 489.1738 367.4628)" class="st3 st4">$10.3 million</text>
<text transform="matrix(1.0038 0 0 1 627.5302 350.7469)" class="st3 st4">$8.5 million</text>
<text transform="matrix(1.0512 0 0 1 6.8896 22.701)" class="st8"><tspan x="0" y="0" class="st12 st13">The top five recipient</tspan><tspan x="173" y="0" class="st12 st13">s</tspan><tspan x="182" y="0" class="st12 st13"> received nearly $55 million</tspan></text>
<text transform="matrix(1.0512 0 0 1 629.2558 603.6366)" class="st8"><tspan x="0" y="0" class="st12 st14">Source: NYC Open Dat</tspan><tspan x="107.6" y="0" class="st12 st14">a</tspan></text>
<g id="path0_00000073691328873730302130000002279315785882335670_">
	<path class="st0" d="M-680.5,975.5c0-6.6,5.4-12,12-12h318.3c6.6,0,12,5.4,12,12v226c0,6.6-5.4,12-12,12h-318.3
		c-6.6,0-12-5.4-12-12V975.5z"/>
</g>
<rect x="-680.5" y="963.5" class="st1" width="342.3" height="250"/>
<text transform="matrix(1.0512 0 0 1 -665.6562 987.9854)" class="st2 st3" style="font-size:11.4001px;">Department of Youth and Community Development</text>
<g id="path1_00000182486132294345986790000012469489406132180407_">
	<path class="st5" d="M-680.5,1226.9c0-6.6,5.4-12,12-12h318.3c6.6,0,12,5.4,12,12v130.2c0,6.6-5.4,12-12,12h-318.3
		c-6.6,0-12-5.4-12-12V1226.9z"/>
</g>
<rect x="-680.5" y="1214.9" class="st1" width="342.3" height="154.2"/>
<g id="path2_00000072971302623492611090000005425534814597057708_">
	<path class="st6" d="M-336.8,975.5c0-6.6,5.4-12,12-12h182.3c6.6,0,12,5.4,12,12v154.2c0,6.6-5.4,12-12,12h-182.3
		c-6.6,0-12-5.4-12-12V975.5z"/>
</g>
<rect x="-336.8" y="963.5" class="st1" width="206.3" height="178.2"/>
<g id="path3_00000054232497871770811770000005865386069209683630_">
	<path class="st7" d="M-336.8,1155.1c0-6.6,5.4-12,12-12h88c6.6,0,12,5.4,12,12v202.1c0,6.6-5.4,12-12,12h-88c-6.6,0-12-5.4-12-12
		V1155.1z"/>
</g>
<rect x="-336.8" y="1143.1" class="st1" width="112" height="226.1"/>
<text transform="matrix(1 0 0 1 -321.5956 1168.1094)" class="st8"><tspan x="0" y="0" class="st3" style="font-size:11.4001px;">Parks </tspan><tspan x="0" y="13.7" class="st3" style="font-size:11.4001px;">&amp; Recreation</tspan></text>
<g id="path4_00000107582590536885988790000006808510153405329291_">
	<path class="st9" d="M-223.4,1155.1c0-6.6,5.4-12,12-12h69c6.6,0,12,5.4,12,12v202.1c0,6.6-5.4,12-12,12h-69c-6.6,0-12-5.4-12-12
		V1155.1z"/>
</g>
<rect x="-223.4" y="1143.1" class="st1" width="93" height="226.1"/>
<text transform="matrix(1 0 0 1 -220.3754 1169.7402)" class="st3" style="font-size:10.2552px;">Legal Aid Society</text>
<text transform="matrix(1 0 0 1 -664.8237 1010.7861)" class="st2 st3" style="font-size:12.1601px;">$34.5 million</text>
<text transform="matrix(1.0038 0 0 1 -665.2582 1239.9111)" class="st3" style="font-size:11.4001px;">City University of New York</text>
<text transform="matrix(1.0038 0 0 1 -664.8237 1262.7119)" class="st3" style="font-size:11.4001px;">$21.4 million</text>
<text transform="matrix(1.0512 0 0 1 -321.5956 988.1396)" class="st3" style="font-size:11.4001px;">Department of Education</text>
<text transform="matrix(1.0038 0 0 1 -320.7636 1010.9404)" class="st3" style="font-size:11.4001px;">$14.9 million</text>
<text transform="matrix(1.0038 0 0 1 -321.0937 1204.8066)" class="st3" style="font-size:11.4001px;">$10.3 million</text>
<text transform="matrix(1.0038 0 0 1 -219.5556 1192.5391)" class="st3" style="font-size:11.4001px;">$8.5 million</text>
<text transform="matrix(1.0512 0 0 1 -675.2377 958.0967)" class="st8"><tspan x="0" y="0" class="st12" style="font-size:13.6802px;">The top five recipient</tspan><tspan x="127" y="0" class="st12" style="font-size:13.6802px;">s</tspan><tspan x="133.6" y="0" class="st12" style="font-size:13.6802px;"> received nearly $55 million</tspan></text>
<text transform="matrix(1.0512 0 0 1 -218.2895 1378.1338)" class="st8"><tspan x="0" y="0" class="st12" style="font-size:7.5965px;">Source: NYC Open Dat</tspan><tspan x="79" y="0" class="st12" style="font-size:7.5965px;">a</tspan></text>
<g id="path0_00000059989390951430669330000012003834567708178588_">
	<path class="st0" d="M901.6,867.5c0-6.6,5.4-12,12-12h255.7c6.6,0,12,5.4,12,12v180.3c0,6.6-5.4,12-12,12H913.6
		c-6.6,0-12-5.4-12-12V867.5z"/>
</g>
<rect x="901.6" y="855.5" class="st1" width="279.7" height="204.3"/>
<text transform="matrix(1.0512 0 0 1 913.746 875.5165)" class="st2 st3" style="font-size:9.3174px;">Department of Youth and Community Development</text>
<g id="path1_00000121998313769909338480000015302286046217815986_">
	<path class="st5" d="M901.6,1073c0-6.6,5.4-12,12-12h255.7c6.6,0,12,5.4,12,12v102c0,6.6-5.4,12-12,12H913.6c-6.6,0-12-5.4-12-12
		V1073z"/>
</g>
<rect x="901.6" y="1061" class="st1" width="279.7" height="126"/>
<g id="path2_00000077298469878309397090000010502003896317949116_">
	<path class="st6" d="M1182.5,867.5c0-6.6,5.4-12,12-12h144.6c6.6,0,12,5.4,12,12v121.6c0,6.6-5.4,12-12,12h-144.6
		c-6.6,0-12-5.4-12-12V867.5z"/>
</g>
<rect x="1182.5" y="855.5" class="st1" width="168.6" height="145.6"/>
<g id="path3_00000118369249645409945680000004528989756595870870_">
	<path class="st7" d="M1182.5,1014.3c0-6.6,5.4-12,12-12h67.5c6.6,0,12,5.4,12,12V1175c0,6.6-5.4,12-12,12h-67.5
		c-6.6,0-12-5.4-12-12V1014.3z"/>
</g>
<rect x="1182.5" y="1002.3" class="st1" width="91.5" height="184.8"/>
<text transform="matrix(1 0 0 1 1194.9491 1022.7333)" class="st8"><tspan x="0" y="0" class="st3" style="font-size:9.3174px;">Parks </tspan><tspan x="0" y="11.2" class="st3" style="font-size:9.3174px;">&amp; Recreation</tspan></text>
<g id="path4_00000066505226138249583210000008995967727300979098_">
	<path class="st9" d="M1275.2,1014.3c0-6.6,5.4-12,12-12h52c6.6,0,12,5.4,12,12V1175c0,6.6-5.4,12-12,12h-52c-6.6,0-12-5.4-12-12
		V1014.3z"/>
</g>
<rect x="1275.2" y="1002.3" class="st1" width="76" height="184.8"/>
<text transform="matrix(1 0 0 1 1277.6757 1024.0663)" class="st3" style="font-size:8.3817px;">Legal Aid Society</text>
<text transform="matrix(1 0 0 1 914.4267 894.1522)" class="st2 st3" style="font-size:9.9385px;">$34.5 million</text>
<text transform="matrix(1.0038 0 0 1 914.0722 1081.4169)" class="st3" style="font-size:9.3174px;">City University of New York</text>
<text transform="matrix(1.0038 0 0 1 914.4267 1100.0526)" class="st3" style="font-size:9.3174px;">$21.4 million</text>
<text transform="matrix(1.0512 0 0 1 1194.9491 875.6434)" class="st3" style="font-size:9.3174px;">Department of Education</text>
<text transform="matrix(1.0038 0 0 1 1195.6288 894.2782)" class="st3" style="font-size:9.3174px;">$14.9 million</text>
<text transform="matrix(1.0038 0 0 1 1195.3593 1052.7255)" class="st3" style="font-size:9.3174px;">$10.3 million</text>
<text transform="matrix(1.0038 0 0 1 1278.3466 1042.7001)" class="st3" style="font-size:9.3174px;">$8.5 million</text>
<text transform="matrix(1.0512 0 0 1 906.4993 848.2631)" class="st8"><tspan x="0" y="0" class="st12" style="font-size:11.1809px;">The top five recipient</tspan><tspan x="103.8" y="0" class="st12" style="font-size:11.1809px;">s</tspan><tspan x="109.2" y="0" class="st12" style="font-size:11.1809px;"> received nearly $55 million</tspan></text>
<text transform="matrix(1.0512 0 0 1 1279.3807 1194.3866)" class="st8"><tspan x="0" y="0" class="st12" style="font-size:6.2086px;">Source: NYC Open Dat</tspan><tspan x="64.5" y="0" class="st12" style="font-size:6.2086px;">a</tspan></text>
</svg>
