<?xml version="1.0" encoding="utf-8"?>
<!-- Generator: Adobe Illustrator 26.0.3, SVG Export Plug-In . SVG Version: 6.00 Build 0)  -->
<svg version="1.1" id="Layer_1" xmlns="http://www.w3.org/2000/svg" xmlns:xlink="http://www.w3.org/1999/xlink" x="0px" y="0px"
	 viewBox="0 0 450 360" style="enable-background:new 0 0 450 360;" xml:space="preserve">
<style type="text/css">
	.st0{fill:#FFFFFF;}
	.st1{fill:#A7BED3;}
	.st2{fill:none;}
	.st3{fill:#FFCAAF;}
	.st4{fill:#7D80A1;}
	.st5{fill:#F1FFC4;}
	.st6{fill:#E36588;}
	.st7{font-family:'Arial-BoldMT';}
	.st8{font-size:8px;}
	.st9{font-size:9px;}
	.st10{font-size:11px;}
	.st11{font-size:12px;}
	.st12{enable-background:new    ;}
	.st13{font-size:7px;}
	.st14{font-size:11.1684px;}
	.st15{font-family:'ArialMT';}
	.st16{font-size:6.2047px;}
</style>
<rect id="backgorund" x="-1426.2" y="-743.5" class="st0" width="750" height="553.2"/>
<g id="path0">
	<path class="st1" d="M-1426.2-731.5c0-6.6,5.4-12,12-12h486.9c6.6,0,12,5.4,12,12v365c0,6.6-5.4,12-12,12h-486.9
		c-6.6,0-12-5.4-12-12V-731.5z"/>
</g>
<rect x="-1426.2" y="-743.5" class="st2" width="510.9" height="389"/>
<g id="path1">
	<path class="st3" d="M-1426.2-340.6c0-6.6,5.4-12,12-12h486.9c6.6,0,12,5.4,12,12v138.3c0,6.6-5.4,12-12,12h-486.9
		c-6.6,0-12-5.4-12-12V-340.6z"/>
</g>
<rect x="-1426.2" y="-352.6" class="st2" width="510.9" height="162.3"/>
<g id="path2">
	<path class="st4" d="M-913.4-731.5c0-6.6,5.4-12,12-12h97c6.6,0,12,5.4,12,12v349.6c0,6.6-5.4,12-12,12h-97c-6.6,0-12-5.4-12-12
		V-731.5z"/>
</g>
<rect x="-913.4" y="-743.5" class="st2" width="121" height="373.6"/>
<g id="path3">
	<path class="st5" d="M-790.5-731.5c0-6.6,5.4-12,12-12h90.3c6.6,0,12,5.4,12,12v349.6c0,6.6-5.4,12-12,12h-90.3
		c-6.6,0-12-5.4-12-12V-731.5z"/>
</g>
<rect x="-790.5" y="-743.5" class="st2" width="114.3" height="373.6"/>
<text transform="matrix(0.9998 0 0 1 -782.8538 -548.9717)" class="st7 st11">Bronx Defenders</text>
<g id="path4">
	<path class="st6" d="M-913.4-355.9c0-6.6,5.4-12,12-12h213.2c6.6,0,12,5.4,12,12v153.7c0,6.6-5.4,12-12,12h-213.2
		c-6.6,0-12-5.4-12-12V-355.9z"/>
</g>
<rect x="-913.4" y="-367.9" class="st2" width="237.2" height="177.7"/>
<text transform="matrix(0.9998 0 0 1 -894.3725 -333.9633)" class="st7" style="font-size:15px;">New York Public Library</text>
<text transform="matrix(1.0512 0 0 1 -1407.2136 -709.4278)" class="st7" style="font-size:15px;">City University of New York</text>
<text transform="matrix(1.0512 0 0 1 -1406.1776 -318.8462)" class="st7" style="font-size:15px;">Legal Aid Society</text>
<text transform="matrix(1.0512 0 0 1 -907.4778 -711.8106)" class="st12"><tspan x="0" y="0" class="st7" style="font-size:11.5px;">Brooklyn Defender</tspan><tspan x="0" y="13.8" class="st7" style="font-size:11.5px;">Services</tspan></text>
<text transform="matrix(1.0512 0 0 1 -1421.201 -749.7452)" class="st12"><tspan x="0" y="0" class="st7" style="font-size:18.6406px;">The top five recipient</tspan><tspan x="187.5" y="0" class="st7" style="font-size:18.6406px;">s</tspan><tspan x="197.5" y="0" class="st7" style="font-size:18.6406px;"> received nearly $55 million</tspan></text>
<text transform="matrix(1 0 0 1 -1406.4723 -676.3939)" class="st7" style="font-size:15px;">$26.3 million</text>
<text transform="matrix(1 0 0 1 -1406.4725 -288.8458)" class="st7" style="font-size:15px;">$11.08 million</text>
<text transform="matrix(1 0 0 1 -908.6808 -667.0106)" class="st7" style="font-size:11.5px;">$6.08 million</text>
<text transform="matrix(1 0 0 1 -781.9774 -518.9719)" class="st7 st11">$5.7 million</text>
<text transform="matrix(1 0 0 1 -893.2777 -303.9635)" class="st7" style="font-size:15px;">$5.6 million</text>
<text transform="matrix(1.0512 0 0 1 -797.1459 -180.9615)" class="st12"><tspan x="0" y="0" class="st15" style="font-size:10.3559px;">Source: NYC Open Dat</tspan><tspan x="107.6" y="0" class="st15" style="font-size:10.3559px;">a</tspan></text>
<rect id="backgorund_00000065038806178986604370000017529181493993718184_" x="-2364.4" y="160.5" class="st0" width="550.5" height="406.1"/>
<g id="path0_00000101076379045219489500000018077622878488127132_">
	<path class="st1" d="M-2364.4,172.5c0-6.6,5.4-12,12-12h351c6.6,0,12,5.4,12,12V434c0,6.6-5.4,12-12,12h-351c-6.6,0-12-5.4-12-12
		V172.5z"/>
</g>
<rect x="-2364.4" y="160.5" class="st2" width="375" height="285.5"/>
<g id="path1_00000101792148961815569550000016046288899566009748_">
	<path class="st3" d="M-2364.4,459.4c0-6.6,5.4-12,12-12h351c6.6,0,12,5.4,12,12v95.1c0,6.6-5.4,12-12,12h-351c-6.6,0-12-5.4-12-12
		V459.4z"/>
</g>
<rect x="-2364.4" y="447.4" class="st2" width="375" height="119.1"/>
<g id="path2_00000114761014174514772980000017336456714011597753_">
	<path class="st4" d="M-1988,172.5c0-6.6,5.4-12,12-12h64.8c6.6,0,12,5.4,12,12v250.2c0,6.6-5.4,12-12,12h-64.8c-6.6,0-12-5.4-12-12
		V172.5z"/>
</g>
<rect x="-1988" y="160.5" class="st2" width="88.8" height="274.2"/>
<g id="path3_00000000904282441826420750000011759120594229350299_">
	<path class="st5" d="M-1897.8,172.5c0-6.6,5.4-12,12-12h59.9c6.6,0,12,5.4,12,12v250.2c0,6.6-5.4,12-12,12h-59.9
		c-6.6,0-12-5.4-12-12V172.5z"/>
</g>
<rect x="-1897.8" y="160.5" class="st2" width="83.9" height="274.2"/>
<text transform="matrix(0.9998 0 0 1 -1892.2212 303.2125)" class="st7 st9">Bronx Defenders</text>
<g id="path4_00000045608249765939655450000015857135441394933423_">
	<path class="st6" d="M-1988,448.1c0-6.6,5.4-12,12-12h150.1c6.6,0,12,5.4,12,12v106.4c0,6.6-5.4,12-12,12H-1976
		c-6.6,0-12-5.4-12-12V448.1z"/>
</g>
<rect x="-1988" y="436.1" class="st2" width="174.1" height="130.4"/>
<text transform="matrix(0.9998 0 0 1 -1974.0728 461.0221)" class="st7 st10">New York Public Library</text>
<text transform="matrix(1.0512 0 0 1 -2350.4814 185.442)" class="st7 st11">City University of New York</text>
<text transform="matrix(1.0512 0 0 1 -2349.7212 472.1158)" class="st7 st11">Legal Aid Society</text>
<text transform="matrix(1.0512 0 0 1 -1983.6914 183.694)" class="st12"><tspan x="0" y="0" class="st7" style="font-size:8.5px;">Brooklyn Defender</tspan><tspan x="0" y="10.2" class="st7" style="font-size:8.5px;">Services</tspan></text>
<text transform="matrix(1.0512 0 0 1 -2360.4819 155.8512)" class="st12"><tspan x="0" y="0" class="st7" style="font-size:13.6816px;">The top five recipient</tspan><tspan x="137.6" y="0" class="st7" style="font-size:13.6816px;">s</tspan><tspan x="144.9" y="0" class="st7" style="font-size:13.6816px;"> received nearly $55 million</tspan></text>
<text transform="matrix(1 0 0 1 -2349.938 209.6881)" class="st7 st11">$26.3 million</text>
<text transform="matrix(1 0 0 1 -2349.938 494.1364)" class="st7 st11">$11.08 million</text>
<text transform="matrix(1 0 0 1 -1984.5752 216.5758)" class="st7" style="font-size:8.5px;">$6.08 million</text>
<text transform="matrix(1 0 0 1 -1891.5786 325.2311)" class="st7 st9">$5.7 million</text>
<text transform="matrix(1 0 0 1 -1973.269 483.0406)" class="st7 st10">$5.6 million</text>
<text transform="matrix(1.0512 0 0 1 -1902.9775 575.0533)" class="st12"><tspan x="0" y="0" class="st15" style="font-size:7.6009px;">Source: NYC Open Dat</tspan><tspan x="79" y="0" class="st15" style="font-size:7.6009px;">a</tspan></text>
<rect id="backgorund_00000179645325141977373630000010291077729191734680_" y="20.1" class="st0" width="449.4" height="331.5"/>
<g id="path0_00000096018401119120086440000017523816452236266908_">
	<path class="st1" d="M0,32.1c0-6.6,5.4-12,12-12h282.1c6.6,0,12,5.4,12,12v209.1c0,6.6-5.4,12-12,12H12c-6.6,0-12-5.4-12-12V32.1z"
		/>
</g>
<rect y="20.1" class="st2" width="306.1" height="233.1"/>
<g id="path1_00000003817183190366375620000018327397636918872760_">
	<path class="st3" d="M0,266.3c0-6.6,5.4-12,12-12h282.1c6.6,0,12,5.4,12,12v73.3c0,6.6-5.4,12-12,12H12c-6.6,0-12-5.4-12-12V266.3z
		"/>
</g>
<rect y="254.3" class="st2" width="306.1" height="97.3"/>
<g id="path2_00000133527366489814803770000001686460419175005611_">
	<path class="st4" d="M307.2,32.1c0-6.6,5.4-12,12-12h48.5c6.6,0,12,5.4,12,12v199.9c0,6.6-5.4,12-12,12h-48.5c-6.6,0-12-5.4-12-12
		V32.1z"/>
</g>
<rect x="307.2" y="20.1" class="st2" width="72.5" height="223.9"/>
<g id="path3_00000057109019323279690220000002518773050461365649_">
	<path class="st5" d="M380.9,32.1c0-6.6,5.4-12,12-12h44.5c6.6,0,12,5.4,12,12v199.9c0,6.6-5.4,12-12,12h-44.5c-6.6,0-12-5.4-12-12
		V32.1z"/>
</g>
<rect x="380.9" y="20.1" class="st2" width="68.5" height="223.9"/>
<text transform="matrix(0.9998 0 0 1 383.4429 136.5973)" class="st7 st8">Bronx Defenders</text>
<g id="path4_00000015328355165797535520000017351574899052764042_">
	<path class="st6" d="M307.2,257.1c0-6.6,5.4-12,12-12h118.1c6.6,0,12,5.4,12,12v82.5c0,6.6-5.4,12-12,12H319.2c-6.6,0-12-5.4-12-12
		V257.1z"/>
</g>
<rect x="307.2" y="245.1" class="st2" width="142.1" height="106.5"/>
<text transform="matrix(0.9998 0 0 1 318.6275 265.4176)" class="st7 st9">New York Public Library</text>
<text transform="matrix(1.0512 0 0 1 11.3619 40.4606)" class="st7 st10">City University of New York</text>
<text transform="matrix(1.0512 0 0 1 11.983 274.4752)" class="st7 st11">Legal Aid Society</text>
<text transform="matrix(1.0512 0 0 1 310.7759 39.0328)" class="st12"><tspan x="0" y="0" class="st7 st13">Brooklyn Defender</tspan><tspan x="0" y="8.4" class="st7 st13">Services</tspan></text>
<text transform="matrix(1.0512 0 0 1 2.3824 16.3043)" class="st12"><tspan x="0" y="0" class="st7 st14">The top five recipient</tspan><tspan x="112.3" y="0" class="st7 st14">s</tspan><tspan x="118.3" y="0" class="st7 st14"> received nearly $55 million</tspan></text>
<text transform="matrix(1 0 0 1 11.8052 60.2526)" class="st7 st10">$26.3 million</text>
<text transform="matrix(1 0 0 1 11.8052 292.4498)" class="st7 st11">$11.08 million</text>
<text transform="matrix(1 0 0 1 310.0552 65.8746)" class="st7 st13">$6.08 million</text>
<text transform="matrix(1 0 0 1 383.9683 154.5709)" class="st7 st8">$5.7 million</text>
<text transform="matrix(1 0 0 1 319.2837 283.3922)" class="st7 st9">$5.6 million</text>
<text transform="matrix(1.0512 0 0 1 377.479 357.6871)" class="st12"><tspan x="0" y="0" class="st15 st16">Source: NYC Open Dat</tspan><tspan x="64.5" y="0" class="st15 st16">a</tspan></text>
</svg>
